
<svg width="135px" height="22px" viewBox="0 0 135 22" version="1.1" xmlns="http://www.w3.org/2000/svg" xmlns:xlink="http://www.w3.org/1999/xlink">
    <defs>
        <path d="M34.3712245,21.2402344 C38.3263026,21.2402344 41.5636073,18.8818359 41.5636073,14.9707031 C41.5636073,8.10058594 31.5440761,9.41894531 31.5440761,5.52246094 C31.5440761,4.20410156 32.6866542,3.31054688 34.1514979,3.31054688 C35.5430995,3.31054688 36.7735683,4.11621094 37.4913417,5.52246094 L40.582162,3.6328125 C39.1612636,1.11328125 36.832162,0 34.2833339,0 C30.7970058,0 27.8233729,2.05078125 27.8233729,5.71289062 C27.8233729,12.4511719 37.8429042,11.015625 37.8429042,15.3076172 C37.8429042,16.7724609 36.6417323,17.9443359 34.4298183,17.9443359 C32.2325526,17.9443359 30.4014979,16.8017578 30.1378261,14.2236328 L26.4464198,15.1611328 C27.1055995,19.2333984 30.7091151,21.2402344 34.3712245,21.2402344 Z M44.4200526,3.60351562 L48.1700526,3.60351562 L48.1700526,0.307617188 L44.4200526,0.307617188 L44.4200526,3.60351562 Z M44.5079433,21.0058594 L48.082162,21.0058594 L48.082162,6.37207031 L44.5079433,6.37207031 L44.5079433,21.0058594 Z M52.3741542,21.0058594 L55.9483729,21.0058594 L55.9483729,12.9638672 C55.9483729,11.015625 57.0909511,9.38964844 59.0391933,9.38964844 C60.8702479,9.38964844 61.4122401,10.8398438 61.4122401,12.6123047 L61.4122401,21.0058594 L64.9864589,21.0058594 L64.9864589,12.9638672 C64.9864589,11.015625 66.1143886,9.38964844 68.0479823,9.38964844 C69.8936854,9.38964844 70.4356776,10.8691406 70.4356776,12.6708984 L70.4356776,21.0058594 L74.0098964,21.0058594 L74.0098964,12.2167969 C74.0098964,9.12597656 72.4864589,6.06445312 68.7657558,6.06445312 C66.9932948,6.06445312 65.2501308,6.75292969 64.0782558,8.64257812 C63.2139979,6.69433594 61.4122401,6.06445312 59.7569667,6.06445312 C58.2628261,6.06445312 56.754037,6.57714844 55.8018886,8.203125 L55.8018886,6.37207031 L52.3448573,6.37207031 L52.3741542,21.0058594 Z M83.9708339,21.2988281 C88.4972011,21.2988281 91.4708339,17.7978516 91.4708339,13.6523438 C91.4708339,9.52148438 88.4972011,6.06445312 83.9708339,6.06445312 C79.4444667,6.06445312 76.4708339,9.52148438 76.4708339,13.6523438 C76.4708339,17.7978516 79.4444667,21.2988281 83.9708339,21.2988281 Z M83.9708339,18.2226562 C81.2755214,18.2226562 80.191537,16.0546875 80.191537,13.6523438 C80.191537,11.25 81.2755214,9.15527344 83.9708339,9.15527344 C86.6807948,9.15527344 87.7501308,11.25 87.7501308,13.6523438 C87.7501308,16.0546875 86.6807948,18.2226562 83.9708339,18.2226562 Z M94.3712245,21.0058594 L97.9454433,21.0058594 L97.9454433,12.9931641 C97.9454433,10.4443359 99.2052089,9.36035156 101.212045,9.36035156 C103.0431,9.36035156 104.009896,10.7519531 104.009896,12.6708984 L104.009896,21.0058594 L107.584115,21.0058594 L107.584115,12.2167969 C107.584115,9.15527344 106.075326,6.06445312 102.237435,6.06445312 C100.801889,6.06445312 99.1173183,6.63574219 97.9454433,8.07128906 L97.9454433,6.37207031 L94.3712245,6.37207031 L94.3712245,21.0058594 Z M119.185678,21.0058594 L122.906381,21.0058594 L122.906381,12.1582031 L125.396615,12.1582031 L130.494271,21.0058594 L134.756967,21.0058594 L129.000131,11.7919922 C131.343881,10.9863281 133.0431,9.00878906 133.0431,6.40136719 C133.0431,2.51953125 129.747201,0.307617188 125.880014,0.307617188 L119.185678,0.307617188 L119.185678,21.0058594 Z M122.935678,9.12597656 L122.935678,3.6328125 L125.90931,3.6328125 C128.033334,3.6328125 129.366342,4.74609375 129.366342,6.45996094 C129.366342,8.01269531 128.194467,9.03808594 126.216928,9.12597656 L122.935678,9.12597656 Z" id="path-1"></path>
    </defs>
    <g id="Page-1" stroke="none" stroke-width="1" fill="none" fill-rule="evenodd">
        <g id="Group" transform="translate(0.000000, -0.005859)" fill="#000000" fill-rule="nonzero">
            <g id="SimonR">
                <use xlink:href="#path-1"></use>
                <use xlink:href="#path-1"></use>
            </g>
            <polygon id="Path_26" points="12.245 0.005859375 4.54747351e-13 9.41022013 9.27 21.0058594 16.565 18.4290507 19.57 6.85818841"></polygon>
        </g>
    </g>
</svg>